<svg width="40" height="40" viewBox="0 0 40 40" fill="none" xmlns="http://www.w3.org/2000/svg">
<g clip-path="url(#clip0_1_431)">
<path d="M27.4998 13.3333H24.9165C24.7231 12.3928 24.2114 11.5478 23.4675 10.9406C22.7237 10.3334 21.7933 10.0012 20.8332 10L19.1665 10C18.2063 10.0012 17.2759 10.3334 16.5321 10.9406C15.7883 11.5478 15.2766 12.3928 15.0832 13.3333H12.4998C12.2788 13.3333 12.0669 13.4211 11.9106 13.5774C11.7543 13.7337 11.6665 13.9457 11.6665 14.1667C11.6665 14.3877 11.7543 14.5996 11.9106 14.7559C12.0669 14.9122 12.2788 15 12.4998 15H13.3332V25.8333C13.3345 26.938 13.7739 27.997 14.555 28.7782C15.3361 29.5593 16.3952 29.9987 17.4998 30H22.4998C23.6045 29.9987 24.6635 29.5593 25.4447 28.7782C26.2258 27.997 26.6652 26.938 26.6665 25.8333V15H27.4998C27.7209 15 27.9328 14.9122 28.0891 14.7559C28.2454 14.5996 28.3332 14.3877 28.3332 14.1667C28.3332 13.9457 28.2454 13.7337 28.0891 13.5774C27.9328 13.4211 27.7209 13.3333 27.4998 13.3333ZM19.1665 11.6667H20.8332C21.3501 11.6673 21.8541 11.8278 22.2762 12.1262C22.6983 12.4246 23.0177 12.8462 23.1907 13.3333H16.809C16.982 12.8462 17.3014 12.4246 17.7235 12.1262C18.1456 11.8278 18.6496 11.6673 19.1665 11.6667ZM24.9998 25.8333C24.9998 26.4964 24.7364 27.1323 24.2676 27.6011C23.7988 28.0699 23.1629 28.3333 22.4998 28.3333H17.4998C16.8368 28.3333 16.2009 28.0699 15.7321 27.6011C15.2632 27.1323 14.9998 26.4964 14.9998 25.8333V15H24.9998V25.8333Z" fill="#DF1C26"/>
<path d="M18.3333 25C18.5543 25 18.7663 24.9122 18.9226 24.756C19.0789 24.5997 19.1667 24.3877 19.1667 24.1667V19.1667C19.1667 18.9457 19.0789 18.7337 18.9226 18.5775C18.7663 18.4212 18.5543 18.3334 18.3333 18.3334C18.1123 18.3334 17.9004 18.4212 17.7441 18.5775C17.5878 18.7337 17.5 18.9457 17.5 19.1667V24.1667C17.5 24.3877 17.5878 24.5997 17.7441 24.756C17.9004 24.9122 18.1123 25 18.3333 25Z" fill="#DF1C26"/>
<path d="M21.6668 25C21.8878 25 22.0998 24.9122 22.2561 24.756C22.4124 24.5997 22.5002 24.3877 22.5002 24.1667V19.1667C22.5002 18.9457 22.4124 18.7337 22.2561 18.5775C22.0998 18.4212 21.8878 18.3334 21.6668 18.3334C21.4458 18.3334 21.2339 18.4212 21.0776 18.5775C20.9213 18.7337 20.8335 18.9457 20.8335 19.1667V24.1667C20.8335 24.3877 20.9213 24.5997 21.0776 24.756C21.2339 24.9122 21.4458 25 21.6668 25Z" fill="#DF1C26"/>
</g>
<defs>
<clipPath id="clip0_1_431">
<rect width="20" height="20" fill="white" transform="translate(10 10)"/>
</clipPath>
</defs>
</svg>
