<svg xmlns="http://www.w3.org/2000/svg" version="1.1" xmlns:xlink="http://www.w3.org/1999/xlink" width="512" height="512" x="0" y="0" viewBox="0 0 383.705 383.705" style="enable-background:new 0 0 512 512" xml:space="preserve" class=""><g><path d="m46.062 53.567 6.504-4.816c3.552-2.616 4.305-7.631 1.677-11.189a8.001 8.001 0 0 0-11.186-1.675l-6.513 4.807c-3.543 2.625-4.296 7.641-1.677 11.189 2.628 3.549 7.643 4.3 11.195 1.684z" style="fill-rule:evenodd;clip-rule:evenodd;" fill="#DF1C26" opacity="1" data-original="#000000"></path><path d="M72.695 37.815c35.294-13.76 79.736-5.83 112.24 50.921a7.996 7.996 0 0 0 7.257 4.019 8.013 8.013 0 0 0 6.924-4.581c14.138-30.01 33.907-46.377 55.08-52.931 31.657-9.795 65.941 2.118 87.319 21.102 14.112 12.529 22.448 30.145 25.272 50.695 4.45 32.408-4.681 71.878-26.933 111.393a2.335 2.335 0 0 0-.111.208c-25.914 49.319-91.82 98.366-147.868 132.005-56.046-33.638-121.953-82.686-147.867-132.004a2.204 2.204 0 0 0-.111-.208c-32.23-57.24-37.194-114.389-12.735-149.486 2.525-3.621 1.635-8.618-1.986-11.144-3.62-2.526-8.609-1.629-11.134 1.992C-9.181 98.839-5.903 162.597 29.956 226.282c27.669 52.56 98.564 105.463 157.847 140.56a7.965 7.965 0 0 0 8.147 0c59.291-35.097 130.178-88.001 157.898-140.651 40.917-72.738 39.239-145.449-1.712-181.813-25.11-22.297-65.478-35.93-102.672-24.415-21.575 6.672-42.252 21.726-58.153 48.739C154.092 13.572 105.49 7.86 66.884 22.905A8.016 8.016 0 0 0 62.34 33.27c1.6 4.111 6.247 6.147 10.355 4.545z" style="fill-rule:evenodd;clip-rule:evenodd;" fill="#DF1C26" opacity="1" data-original="#000000"></path></g></svg>