<svg width="19" height="17" viewBox="0 0 19 17" fill="none" xmlns="http://www.w3.org/2000/svg">
<path d="M17.0654 2.39918C16.1344 1.38947 14.857 0.833374 13.4682 0.833374C12.4301 0.833374 11.4794 1.16157 10.6424 1.80878C10.2201 2.13547 9.83745 2.53515 9.50006 3.00165C9.1628 2.53529 8.77999 2.13546 8.35753 1.80878C7.52071 1.16157 6.57 0.833374 5.53189 0.833374C4.14308 0.833374 2.86555 1.38947 1.9346 2.39918C1.01476 3.39709 0.508057 4.76038 0.508057 6.2381C0.508057 7.75904 1.07486 9.15128 2.29175 10.6197C3.38035 11.9331 4.94492 13.2665 6.75674 14.8105C7.3754 15.3378 8.07667 15.9355 8.80483 16.5721C8.99719 16.7406 9.24403 16.8334 9.50006 16.8334C9.75595 16.8334 10.0029 16.7406 10.195 16.5724C10.9232 15.9356 11.6248 15.3377 12.2438 14.8101C14.0553 13.2664 15.6199 11.9332 16.7085 10.6195C17.9254 9.15128 18.492 7.75904 18.492 6.23796C18.492 4.76038 17.9853 3.39709 17.0654 2.39919L17.0654 2.39918Z" fill="#BCBCBC"/>
</svg>
