<svg width="22" height="24" viewBox="0 0 22 24" fill="none" xmlns="http://www.w3.org/2000/svg">
<path d="M15.5782 7.20511C15.4176 7.09622 15.1989 7.13794 15.0898 7.29858C14.9808 7.45927 15.0226 7.67789 15.1833 7.78692C17.5165 9.37031 18.9094 11.9967 18.9094 14.8125C18.9094 19.4908 15.1034 23.2969 10.4251 23.2969C5.74674 23.2969 1.94068 19.4908 1.94068 14.8125C1.94068 13.8325 2.1046 12.8794 2.42818 11.9707L3.55032 13.6052C3.61589 13.7007 3.72432 13.7578 3.84019 13.7578C3.95607 13.7578 4.06444 13.7007 4.13007 13.6052L6.44705 10.2303C6.8116 9.70116 7.0043 9.08119 7.0043 8.4375C7.0043 7.98684 6.90896 7.55822 6.73838 7.16986C7.88068 6.6188 9.14771 6.32812 10.4251 6.32812C10.8286 6.32812 11.2334 6.35686 11.6305 6.41325L12.9477 8.3318C13.0133 8.42728 13.1217 8.48438 13.2376 8.48438C13.3534 8.48438 13.4618 8.42728 13.5274 8.3318L15.8445 4.95684C16.209 4.42772 16.4017 3.80775 16.4017 3.16406C16.4017 1.41937 14.9823 0 13.2376 0C11.4929 0 10.0735 1.41937 10.0735 3.16406C10.0735 3.8077 10.2662 4.42767 10.6304 4.95638L11.1069 5.65041C10.8801 5.63377 10.6524 5.625 10.4251 5.625C9.02443 5.625 7.63463 5.94759 6.38489 6.55955C5.80805 5.78002 4.88236 5.27344 3.84033 5.27344C2.09564 5.27344 0.67627 6.69281 0.67627 8.4375C0.67627 9.08119 0.868926 9.70116 1.23314 10.2298L1.94654 11.2689C1.47624 12.3916 1.23755 13.5827 1.23755 14.8125C1.23755 19.8785 5.35904 24 10.4251 24C15.4911 24 19.6126 19.8785 19.6126 14.8125C19.6126 11.7634 18.1043 8.91952 15.5782 7.20511ZM13.2376 0.703125C14.5945 0.703125 15.6985 1.80712 15.6985 3.16406C15.6985 3.66469 15.5488 4.1467 15.2651 4.55841L13.2376 7.51167L12.1247 5.89064C12.1222 5.88698 12.1198 5.88333 12.1172 5.87977L11.2098 4.55794C10.9264 4.14666 10.7767 3.66459 10.7767 3.16406C10.7766 1.80712 11.8806 0.703125 13.2376 0.703125ZM1.3793 8.4375C1.3793 7.08056 2.4833 5.97656 3.84024 5.97656C5.19718 5.97656 6.30118 7.08056 6.30118 8.4375C6.30118 8.93812 6.15141 9.42009 5.86777 9.83184L3.84024 12.7851L1.81238 9.83138C1.52907 9.42009 1.3793 8.93812 1.3793 8.4375Z" fill="#DF1C26"/>
<path d="M5.59814 8.4375C5.59814 7.46822 4.80961 6.67969 3.84033 6.67969C2.87105 6.67969 2.08252 7.46822 2.08252 8.4375C2.08252 9.40678 2.87105 10.1953 3.84033 10.1953C4.80961 10.1953 5.59814 9.40678 5.59814 8.4375ZM2.78564 8.4375C2.78564 7.85597 3.2588 7.38281 3.84033 7.38281C4.42186 7.38281 4.89502 7.85597 4.89502 8.4375C4.89502 9.01903 4.42186 9.49219 3.84033 9.49219C3.2588 9.49219 2.78564 9.01903 2.78564 8.4375Z" fill="#DF1C26"/>
<path d="M7.61279 14.189C6.64351 14.189 5.85498 14.9775 5.85498 15.9468C5.85498 16.9161 6.64351 17.7046 7.61279 17.7046C8.58207 17.7046 9.37061 16.9161 9.37061 15.9468C9.37061 14.9775 8.58207 14.189 7.61279 14.189ZM7.61279 17.0015C7.03126 17.0015 6.55811 16.5283 6.55811 15.9468C6.55811 15.3652 7.03126 14.8921 7.61279 14.8921C8.19432 14.8921 8.66748 15.3652 8.66748 15.9468C8.66748 16.5283 8.19437 17.0015 7.61279 17.0015Z" fill="#DF1C26"/>
<path d="M7.61279 12.7827C5.86811 12.7827 4.44873 14.2021 4.44873 15.9468C4.44873 16.5905 4.64139 17.2104 5.00561 17.7391L7.32296 21.1145C7.38854 21.21 7.49696 21.2671 7.61284 21.2671C7.72871 21.2671 7.83709 21.21 7.90267 21.1145L10.2197 17.7396C10.5842 17.2105 10.7769 16.5905 10.7769 15.9468C10.7769 14.2021 9.35748 12.7827 7.61279 12.7827ZM9.64037 17.3411L7.61279 20.2944L5.58493 17.3407C5.30162 16.9294 5.15186 16.4474 5.15186 15.9468C5.15186 14.5898 6.25586 13.4858 7.61279 13.4858C8.96973 13.4858 10.0737 14.5898 10.0737 15.9468C10.0737 16.4474 9.92401 16.9294 9.64037 17.3411Z" fill="#DF1C26"/>
<path d="M13.2378 4.92188C14.2071 4.92188 14.9956 4.13334 14.9956 3.16406C14.9956 2.19478 14.2071 1.40625 13.2378 1.40625C12.2685 1.40625 11.48 2.19478 11.48 3.16406C11.48 4.13334 12.2686 4.92188 13.2378 4.92188ZM13.2378 2.10938C13.8193 2.10938 14.2925 2.58253 14.2925 3.16406C14.2925 3.74559 13.8194 4.21875 13.2378 4.21875C12.6562 4.21875 12.1831 3.74559 12.1831 3.16406C12.1831 2.58253 12.6563 2.10938 13.2378 2.10938Z" fill="#DF1C26"/>
<path d="M20.9722 2.10938H17.4565C17.2623 2.10938 17.105 2.26673 17.105 2.46094C17.105 2.65514 17.2623 2.8125 17.4565 2.8125H20.9722C21.1664 2.8125 21.3237 2.65514 21.3237 2.46094C21.3237 2.26673 21.1664 2.10938 20.9722 2.10938Z" fill="#DF1C26"/>
<path d="M18.8042 4.21875C18.9984 4.21875 19.1558 4.06139 19.1558 3.86719C19.1558 3.67298 18.9984 3.51562 18.8042 3.51562H17.3979C17.2037 3.51562 17.0464 3.67298 17.0464 3.86719C17.0464 4.06139 17.2037 4.21875 17.3979 4.21875H18.8042Z" fill="#DF1C26"/>
<path d="M15.6987 15.2437C15.6987 15.0494 15.5414 14.8921 15.3472 14.8921H11.8315C11.6373 14.8921 11.48 15.0494 11.48 15.2437C11.48 15.4379 11.6373 15.5952 11.8315 15.5952H15.3472C15.5414 15.5952 15.6987 15.4379 15.6987 15.2437Z" fill="#DF1C26"/>
<path d="M11.7729 16.2983C11.5787 16.2983 11.4214 16.4557 11.4214 16.6499C11.4214 16.8441 11.5787 17.0015 11.7729 17.0015H13.1792C13.3734 17.0015 13.5308 16.8441 13.5308 16.6499C13.5308 16.4557 13.3734 16.2983 13.1792 16.2983H11.7729Z" fill="#DF1C26"/>
</svg>
