<svg xmlns="http://www.w3.org/2000/svg" version="1.1" xmlns:xlink="http://www.w3.org/1999/xlink" width="512" height="512" x="0" y="0" viewBox="0 0 24 24" style="enable-background:new 0 0 512 512" xml:space="preserve" class=""><g><path fill="#DF1C26" fill-rule="evenodd" d="M12 2a1 1 0 0 1 1 1v10a1 1 0 1 1-2 0V3a1 1 0 0 1 1-1zM8.866 5.57A1 1 0 0 1 8.5 6.936a7 7 0 1 0 6.999 0 1 1 0 0 1 1-1.731 9 9 0 1 1-9.001 0 1 1 0 0 1 1.367.365z" clip-rule="evenodd" opacity="1" data-original="#000000" class=""></path></g></svg>