<svg width="135" height="120" viewBox="0 0 135 120" fill="none" xmlns="http://www.w3.org/2000/svg">
<path d="M17.3885 100.056C2.36271 99.0975 -2.10303 85.6833 0.865651 72.9307C3.32542 62.3622 12.8294 58.3036 22.8933 59.7583C30.9002 60.9175 35.8367 65.4284 37.7028 73.2912C37.7395 73.4439 37.6787 73.5231 37.5204 73.5287L35.3405 73.6178C35.1681 73.6234 35.062 73.5428 35.0225 73.376C33.3515 66.4745 28.8928 62.7411 21.6464 62.1756C16.2604 61.7515 9.97951 62.6464 6.44253 67.0612C2.49418 71.9977 2.30334 80.2294 3.59684 86.2728C5.74277 96.3239 14.5386 98.4317 23.4446 97.2273C29.7764 96.3706 33.4915 92.1975 34.9377 86.2644C34.951 86.2077 34.9834 86.1573 35.0296 86.1211C35.0757 86.0849 35.133 86.0652 35.1921 86.065H37.5204C37.6505 86.065 37.7013 86.1287 37.6731 86.2559C35.4678 96.5487 27.2445 100.679 17.3885 100.056Z" fill="#DF1C26"/>
<path d="M43.5577 59.9939L41.0386 59.9807C40.9753 59.9804 40.9238 60.0314 40.9235 60.0946L40.9113 62.4186C40.911 62.4819 40.962 62.5334 41.0252 62.5337L43.5443 62.5469C43.6076 62.5473 43.6591 62.4963 43.6594 62.433L43.6716 60.109C43.6719 60.0458 43.6209 59.9942 43.5577 59.9939Z" fill="#242021"/>
<path d="M100.291 59.9872H97.8398C97.7274 59.9872 97.6362 60.0784 97.6362 60.1908V99.4368C97.6362 99.5492 97.7274 99.6404 97.8398 99.6404H100.291C100.404 99.6404 100.495 99.5492 100.495 99.4368V60.1908C100.495 60.0784 100.404 59.9872 100.291 59.9872Z" fill="#DF1C26"/>
<path d="M77.602 99.9542C70.8291 99.263 66.0029 95.497 64.6416 88.7326C62.3217 77.2057 67.8477 67.4641 80.7191 67.99C88.5394 68.3081 94.3114 72.0317 95.694 80.3228C95.7166 80.4641 95.6572 80.5362 95.5159 80.5391L93.1706 80.5899C93.0958 80.5907 93.0234 80.5643 92.9671 80.5158C92.9108 80.4674 92.8746 80.4002 92.8652 80.327C91.7456 72.0147 84.5784 70.3607 77.5087 71.0223C70.8376 71.6457 67.6654 75.3778 67.0631 81.8962C66.41 88.9532 68.4499 95.6751 76.3297 96.9898C83.9125 98.2536 91.3427 96.4215 92.9119 87.7487C92.9486 87.531 93.0787 87.4236 93.3021 87.4264L95.5159 87.4518C95.6233 87.4518 95.6699 87.5056 95.6558 87.613C94.2436 97.3036 86.6225 100.875 77.602 99.9542Z" fill="#DF1C26"/>
<path d="M105.715 84.2542C105.749 90.2339 107.9 95.4546 114.316 96.8159C121.797 98.402 130.584 96.6802 131.64 87.5664C131.648 87.4943 131.683 87.4281 131.738 87.3814C131.794 87.3347 131.865 87.3114 131.937 87.3161L134.202 87.4603C134.352 87.4688 134.415 87.5466 134.393 87.6936C132.968 97.5114 125.075 100.824 116.191 100.009C110.198 99.458 105.656 96.0356 103.841 90.2933C101.92 84.2245 102.738 75.3184 108.23 71.1071C114.142 66.5735 125.377 66.8916 130.652 72.3413C133.727 75.5135 134.495 79.4746 134.728 83.8428C134.73 83.8694 134.726 83.8962 134.717 83.9213C134.708 83.9465 134.694 83.9695 134.675 83.989C134.657 84.0085 134.635 84.024 134.611 84.0346C134.586 84.0452 134.56 84.0506 134.533 84.0506H105.915C105.782 84.0506 105.715 84.1184 105.715 84.2542ZM105.881 81.506H131.717C131.718 81.506 131.719 81.5055 131.72 81.5048C131.721 81.504 131.721 81.5029 131.721 81.5017V81.4848C131.721 80.0852 131.428 78.6993 130.859 77.4063C130.29 76.1133 129.456 74.9384 128.405 73.9488C127.353 72.9591 126.105 72.1741 124.731 71.6385C123.357 71.1029 121.885 70.8272 120.398 70.8272H117.2C114.197 70.8272 111.317 71.9501 109.193 73.9488C107.07 75.9474 105.877 78.6582 105.877 81.4848V81.5017C105.877 81.5029 105.877 81.504 105.878 81.5048C105.879 81.5055 105.88 81.506 105.881 81.506Z" fill="#DF1C26"/>
<path d="M43.5552 68.4734H41.0276C40.9643 68.4734 40.9131 68.5247 40.9131 68.588V99.5386C40.9131 99.6018 40.9643 99.6531 41.0276 99.6531H43.5552C43.6185 99.6531 43.6697 99.6018 43.6697 99.5386V68.588C43.6697 68.5247 43.6185 68.4734 43.5552 68.4734Z" fill="#DF1C26"/>
<path d="M49.5479 73.7662C49.5488 73.7892 49.5568 73.8115 49.5707 73.83C49.5846 73.8485 49.6037 73.8622 49.6253 73.8693C49.6469 73.8763 49.6698 73.8763 49.691 73.8692C49.7121 73.8621 49.7303 73.8483 49.743 73.8298C53.7126 68.3929 59.035 68.4819 65.1674 68.5667C65.3088 68.5667 65.3823 68.6374 65.388 68.7788L65.4473 70.8781C65.4502 71.0307 65.3766 71.1043 65.2268 71.0986C61.8793 70.9629 59.5651 71.0406 58.2843 71.3319C51.9101 72.7696 49.8448 77.8757 49.6751 83.9742C49.5281 89.1171 49.4702 94.2642 49.5013 99.4156C49.5013 99.5626 49.4278 99.6361 49.2807 99.6361H47.0627C46.8507 99.6361 46.7446 99.5301 46.7446 99.3181V68.783C46.7446 68.6445 46.8153 68.5738 46.9567 68.571L49.2638 68.5667C49.408 68.5667 49.4815 68.6388 49.4843 68.783L49.5479 73.7662Z" fill="#DF1C26"/>
<path d="M7.76065 108.762C7.92456 108.879 8.01432 108.988 8.02993 109.09C8.05334 109.191 8.01432 109.312 7.91285 109.453L5.16153 113.632V116.384C5.16153 116.485 5.14982 116.579 5.12641 116.665C5.10299 116.743 5.05226 116.801 4.97421 116.84C4.90396 116.887 4.79079 116.91 4.63468 116.91C4.47858 116.91 4.3615 116.887 4.28345 116.84C4.2132 116.801 4.16247 116.739 4.13125 116.653C4.10783 116.567 4.09613 116.469 4.09613 116.36V113.621L1.3331 109.476C1.23944 109.335 1.20431 109.215 1.22773 109.113C1.25114 109.004 1.34481 108.891 1.50871 108.774C1.62579 108.695 1.72336 108.649 1.80141 108.633C1.88726 108.61 1.96532 108.621 2.03556 108.668C2.10581 108.707 2.17215 108.781 2.23459 108.891L4.62297 112.637L7.02306 108.891C7.09331 108.781 7.15965 108.707 7.22209 108.668C7.29234 108.629 7.37039 108.617 7.45625 108.633C7.54211 108.641 7.64357 108.684 7.76065 108.762Z" fill="black"/>
<path d="M10.2495 116.969C9.86701 116.969 9.50016 116.895 9.14893 116.747C8.80551 116.598 8.4972 116.395 8.22402 116.138C7.95084 115.872 7.7362 115.564 7.58009 115.213C7.42399 114.862 7.34594 114.479 7.34594 114.065C7.34594 113.66 7.42009 113.285 7.56839 112.941C7.71669 112.59 7.92352 112.282 8.1889 112.017C8.45427 111.751 8.75867 111.544 9.1021 111.396C9.45333 111.24 9.82798 111.162 10.226 111.162C10.7646 111.162 11.2485 111.291 11.6778 111.548C12.1149 111.798 12.4622 112.141 12.7198 112.579C12.9774 113.016 13.1062 113.507 13.1062 114.054C13.1062 114.483 13.0281 114.877 12.872 115.236C12.7159 115.587 12.5052 115.892 12.2398 116.149C11.9744 116.407 11.67 116.61 11.3266 116.758C10.9831 116.899 10.6241 116.969 10.2495 116.969ZM10.226 115.95C10.5539 115.95 10.8583 115.868 11.1392 115.705C11.4202 115.541 11.6466 115.314 11.8183 115.025C11.99 114.737 12.0759 114.409 12.0759 114.042C12.0759 113.675 11.9939 113.351 11.83 113.07C11.6739 112.789 11.4554 112.571 11.1744 112.415C10.8934 112.259 10.5734 112.18 10.2143 112.18C9.87091 112.18 9.5587 112.262 9.27772 112.426C9.00454 112.59 8.78209 112.813 8.61038 113.094C8.44647 113.375 8.36451 113.695 8.36451 114.054C8.36451 114.428 8.45037 114.76 8.62208 115.049C8.7938 115.33 9.02015 115.552 9.30113 115.716C9.58992 115.872 9.89823 115.95 10.226 115.95Z" fill="black"/>
<path d="M16.4847 116.91C16.1412 116.91 15.8212 116.848 15.5246 116.723C15.2358 116.598 14.9822 116.423 14.7636 116.196C14.5451 115.97 14.3734 115.697 14.2485 115.377C14.1314 115.057 14.0729 114.694 14.0729 114.288V111.747C14.0729 111.638 14.0846 111.544 14.108 111.466C14.1314 111.388 14.1782 111.33 14.2485 111.291C14.3265 111.244 14.4397 111.22 14.588 111.22C14.7363 111.22 14.8456 111.244 14.9158 111.291C14.9939 111.338 15.0446 111.4 15.068 111.478C15.0914 111.556 15.1031 111.65 15.1031 111.759V114.3C15.1031 114.62 15.1578 114.904 15.2671 115.154C15.3763 115.396 15.5402 115.584 15.7588 115.716C15.9851 115.849 16.2583 115.915 16.5783 115.915C16.9061 115.915 17.1871 115.849 17.4213 115.716C17.6632 115.584 17.8467 115.396 17.9715 115.154C18.1042 114.904 18.1706 114.62 18.1706 114.3V111.747C18.1706 111.638 18.1823 111.544 18.2057 111.466C18.2291 111.388 18.2759 111.33 18.3462 111.291C18.4242 111.244 18.5374 111.22 18.6857 111.22C18.834 111.22 18.9433 111.244 19.0135 111.291C19.0916 111.338 19.1384 111.4 19.154 111.478C19.1774 111.556 19.1891 111.65 19.1891 111.759V116.407C19.1891 116.501 19.1774 116.586 19.154 116.665C19.1384 116.735 19.0916 116.789 19.0135 116.828C18.9433 116.867 18.834 116.887 18.6857 116.887C18.5764 116.887 18.4867 116.875 18.4164 116.852C18.354 116.828 18.3072 116.797 18.2759 116.758C18.2447 116.719 18.2213 116.676 18.2057 116.629C18.1979 116.575 18.194 116.52 18.194 116.466L18.2408 115.962C18.1628 116.056 18.0691 116.157 17.9598 116.266C17.8506 116.376 17.7218 116.481 17.5735 116.583C17.433 116.676 17.273 116.754 17.0935 116.817C16.9139 116.879 16.711 116.91 16.4847 116.91Z" fill="black"/>
<path d="M21.1089 116.899C20.9606 116.899 20.8474 116.875 20.7693 116.828C20.6991 116.789 20.6522 116.731 20.6288 116.653C20.6132 116.567 20.6054 116.469 20.6054 116.36V111.747C20.6054 111.63 20.6171 111.533 20.6405 111.455C20.664 111.377 20.7108 111.322 20.781 111.291C20.8513 111.252 20.9645 111.232 21.1206 111.232C21.2611 111.232 21.3664 111.252 21.4367 111.291C21.5147 111.322 21.5655 111.373 21.5889 111.443C21.6201 111.505 21.6357 111.579 21.6357 111.665L21.5889 112.017C21.6435 111.915 21.7059 111.814 21.7762 111.712C21.8542 111.611 21.9479 111.521 22.0572 111.443C22.1743 111.357 22.3108 111.287 22.467 111.232C22.6309 111.178 22.8299 111.15 23.064 111.15C23.1811 111.15 23.2904 111.162 23.3919 111.185C23.5011 111.201 23.6026 111.228 23.6963 111.267C23.7977 111.306 23.8836 111.353 23.9538 111.408C24.0241 111.455 24.0787 111.509 24.1177 111.572C24.1646 111.626 24.188 111.693 24.188 111.771C24.188 111.942 24.1334 112.091 24.0241 112.216C23.9148 112.333 23.8016 112.391 23.6846 112.391C23.5831 112.391 23.5089 112.38 23.4621 112.356C23.4153 112.325 23.3684 112.294 23.3216 112.262C23.2826 112.231 23.2241 112.204 23.146 112.18C23.0679 112.149 22.9431 112.134 22.7714 112.134C22.6543 112.134 22.5294 112.157 22.3967 112.204C22.2718 112.251 22.1508 112.321 22.0338 112.415C21.9167 112.5 21.8191 112.614 21.7411 112.754C21.6708 112.895 21.6357 113.059 21.6357 113.246V116.384C21.6357 116.493 21.624 116.586 21.6006 116.665C21.5772 116.743 21.5264 116.801 21.4484 116.84C21.3781 116.879 21.265 116.899 21.1089 116.899Z" fill="black"/>
<path d="M28.908 116.899C28.7597 116.899 28.6466 116.875 28.5685 116.828C28.4983 116.789 28.4514 116.731 28.428 116.653C28.4046 116.567 28.3929 116.469 28.3929 116.36V109.254C28.3929 109.152 28.4046 109.062 28.428 108.984C28.4592 108.906 28.5139 108.844 28.5919 108.797C28.67 108.75 28.7793 108.727 28.9197 108.727H31.4837C31.8584 108.727 32.2018 108.785 32.514 108.902C32.834 109.012 33.1111 109.183 33.3453 109.417C33.5872 109.644 33.7746 109.921 33.9072 110.249C34.0399 110.577 34.1063 110.955 34.1063 111.384C34.1063 111.806 34.0399 112.18 33.9072 112.508C33.7746 112.836 33.5872 113.113 33.3453 113.34C33.1033 113.558 32.8223 113.726 32.5023 113.843C32.1901 113.96 31.8467 114.019 31.472 114.019H29.4583V116.372C29.4583 116.481 29.4427 116.575 29.4115 116.653C29.3881 116.731 29.3373 116.789 29.2593 116.828C29.189 116.875 29.0719 116.899 28.908 116.899ZM29.4583 112.953H31.4837C31.796 112.953 32.0691 112.895 32.3033 112.778C32.5374 112.653 32.7209 112.473 32.8536 112.239C32.9862 111.997 33.0526 111.704 33.0526 111.361C33.0526 111.033 32.9901 110.752 32.8653 110.518C32.7404 110.284 32.557 110.104 32.315 109.979C32.0808 109.855 31.7999 109.792 31.472 109.792H29.4583V112.953Z" fill="black"/>
<path d="M37.9182 116.969C37.5357 116.969 37.1689 116.895 36.8176 116.747C36.4742 116.598 36.1659 116.395 35.8927 116.138C35.6195 115.872 35.4049 115.564 35.2488 115.213C35.0927 114.862 35.0146 114.479 35.0146 114.065C35.0146 113.66 35.0888 113.285 35.2371 112.941C35.3854 112.59 35.5922 112.282 35.8576 112.017C36.123 111.751 36.4274 111.544 36.7708 111.396C37.122 111.24 37.4967 111.162 37.8947 111.162C38.4333 111.162 38.9172 111.291 39.3465 111.548C39.7836 111.798 40.1309 112.141 40.3885 112.579C40.6461 113.016 40.7748 113.507 40.7748 114.054C40.7748 114.483 40.6968 114.877 40.5407 115.236C40.3846 115.587 40.1739 115.892 39.9085 116.149C39.6431 116.407 39.3387 116.61 38.9953 116.758C38.6518 116.899 38.2928 116.969 37.9182 116.969ZM37.8947 115.95C38.2226 115.95 38.527 115.868 38.8079 115.705C39.0889 115.541 39.3153 115.314 39.487 115.025C39.6587 114.737 39.7446 114.409 39.7446 114.042C39.7446 113.675 39.6626 113.351 39.4987 113.07C39.3426 112.789 39.1241 112.571 38.8431 112.415C38.5621 112.259 38.2421 112.18 37.883 112.18C37.5396 112.18 37.2274 112.262 36.9464 112.426C36.6732 112.59 36.4508 112.813 36.2791 113.094C36.1152 113.375 36.0332 113.695 36.0332 114.054C36.0332 114.428 36.1191 114.76 36.2908 115.049C36.4625 115.33 36.6888 115.552 36.9698 115.716C37.2586 115.872 37.5669 115.95 37.8947 115.95Z" fill="black"/>
<path d="M44.5748 116.922C44.169 116.922 43.7865 116.856 43.4275 116.723C43.0762 116.59 42.764 116.399 42.4909 116.149C42.2255 115.9 42.0147 115.603 41.8586 115.26C41.7103 114.908 41.6362 114.51 41.6362 114.065C41.6362 113.621 41.7103 113.226 41.8586 112.883C42.0147 112.532 42.2255 112.231 42.4909 111.981C42.7562 111.732 43.0645 111.54 43.4158 111.408C43.7748 111.275 44.1534 111.209 44.5514 111.209C44.8168 111.209 45.0783 111.252 45.3358 111.338C45.5934 111.416 45.8198 111.521 46.0149 111.654C46.2178 111.779 46.3622 111.911 46.4481 112.052C46.5261 112.153 46.5808 112.239 46.612 112.309C46.651 112.372 46.6549 112.446 46.6237 112.532C46.5925 112.594 46.5495 112.653 46.4949 112.707C46.4403 112.754 46.3856 112.793 46.331 112.824C46.1905 112.934 46.05 112.949 45.9095 112.871C45.8237 112.785 45.7261 112.707 45.6168 112.637C45.5154 112.559 45.4061 112.489 45.289 112.426C45.1719 112.364 45.0509 112.317 44.9261 112.286C44.809 112.247 44.6841 112.227 44.5514 112.227C44.1846 112.227 43.8607 112.305 43.5797 112.461C43.2987 112.61 43.0801 112.824 42.924 113.105C42.7757 113.379 42.7016 113.699 42.7016 114.065C42.7016 114.432 42.7757 114.752 42.924 115.025C43.0801 115.299 43.2948 115.513 43.568 115.669C43.849 115.825 44.169 115.904 44.528 115.904C44.6919 115.904 44.848 115.884 44.9963 115.845C45.1524 115.798 45.2968 115.74 45.4295 115.669C45.5622 115.591 45.6715 115.509 45.7573 115.424C45.8354 115.369 45.9017 115.322 45.9563 115.283C46.011 115.244 46.0773 115.224 46.1554 115.224C46.2178 115.224 46.2842 115.252 46.3544 115.306C46.4247 115.353 46.4988 115.427 46.5769 115.529C46.6393 115.599 46.6744 115.673 46.6822 115.751C46.6978 115.829 46.6861 115.904 46.6471 115.974C46.6081 116.044 46.5456 116.114 46.4598 116.185C46.3349 116.309 46.1671 116.43 45.9563 116.547C45.7534 116.657 45.531 116.747 45.289 116.817C45.0471 116.887 44.809 116.922 44.5748 116.922Z" fill="black"/>
<path d="M52.2061 115.986C52.3544 116.103 52.4324 116.216 52.4402 116.325C52.4559 116.434 52.4012 116.563 52.2763 116.711C52.1827 116.821 52.0968 116.891 52.0188 116.922C51.9485 116.961 51.8744 116.965 51.7963 116.934C51.7183 116.91 51.6285 116.856 51.527 116.77L48.8811 114.616V116.372C48.8811 116.481 48.8655 116.575 48.8343 116.653C48.8108 116.731 48.764 116.789 48.6938 116.828C48.6235 116.875 48.5103 116.899 48.3542 116.899C48.2137 116.899 48.1045 116.875 48.0264 116.828C47.9484 116.789 47.8976 116.731 47.8742 116.653C47.8586 116.567 47.8508 116.469 47.8508 116.36V109.136C47.8508 109.027 47.8625 108.934 47.8859 108.855C47.9093 108.777 47.9601 108.719 48.0381 108.68C48.1162 108.633 48.2255 108.61 48.3659 108.61C48.5221 108.61 48.6352 108.633 48.7055 108.68C48.7757 108.719 48.8226 108.781 48.846 108.867C48.8694 108.945 48.8811 109.039 48.8811 109.148V113.293L50.8129 111.443C50.8987 111.357 50.9807 111.298 51.0587 111.267C51.1446 111.228 51.2265 111.22 51.3046 111.244C51.3904 111.267 51.4763 111.33 51.5622 111.431C51.7027 111.587 51.769 111.72 51.7612 111.829C51.7612 111.931 51.6909 112.048 51.5505 112.18L49.6538 113.972L52.2061 115.986Z" fill="black"/>
<path d="M55.8938 116.957C55.4255 116.957 55.008 116.879 54.6411 116.723C54.2743 116.567 53.9621 116.356 53.7045 116.091C53.4547 115.818 53.2635 115.505 53.1308 115.154C52.9981 114.803 52.9318 114.424 52.9318 114.019C52.9318 113.48 53.0567 113 53.3064 112.579C53.5562 112.157 53.8996 111.825 54.3367 111.583C54.7816 111.334 55.2889 111.209 55.8587 111.209C56.249 111.209 56.5963 111.271 56.9007 111.396C57.2129 111.513 57.4783 111.673 57.6968 111.876C57.9154 112.079 58.0832 112.305 58.2003 112.555C58.3173 112.805 58.3759 113.055 58.3759 113.304C58.3759 113.702 58.2822 113.983 58.0949 114.147C57.9076 114.303 57.6773 114.382 57.4041 114.382H54.0206C54.0128 114.725 54.1026 115.022 54.2899 115.271C54.485 115.513 54.727 115.701 55.0158 115.833C55.3124 115.966 55.609 116.032 55.9056 116.032C56.1241 116.032 56.3114 116.021 56.4675 115.997C56.6236 115.974 56.7602 115.943 56.8773 115.904C56.9944 115.865 57.0958 115.825 57.1817 115.786C57.2676 115.747 57.3417 115.708 57.4041 115.669C57.4744 115.63 57.5407 115.603 57.6032 115.587C57.6734 115.572 57.7398 115.58 57.8022 115.611C57.8725 115.634 57.9271 115.685 57.9661 115.763C58.0129 115.825 58.0442 115.884 58.0598 115.939C58.0754 115.993 58.0832 116.052 58.0832 116.114C58.0832 116.224 57.9895 116.345 57.8022 116.477C57.6149 116.61 57.3534 116.723 57.0178 116.817C56.69 116.91 56.3153 116.957 55.8938 116.957ZM54.0206 113.691H56.9593C57.1075 113.691 57.2168 113.671 57.2871 113.632C57.3651 113.593 57.4041 113.488 57.4041 113.316C57.4041 113.098 57.3378 112.902 57.2051 112.731C57.0724 112.551 56.889 112.407 56.6549 112.298C56.4285 112.188 56.167 112.134 55.8704 112.134C55.527 112.134 55.2109 112.204 54.9221 112.344C54.6411 112.477 54.4187 112.66 54.2548 112.895C54.0909 113.129 54.0128 113.394 54.0206 113.691Z" fill="black"/>
<path d="M62.1022 116.899C61.7353 116.899 61.4231 116.864 61.1655 116.793C60.9158 116.723 60.7089 116.614 60.545 116.466C60.3811 116.317 60.264 116.126 60.1938 115.892C60.1235 115.65 60.0884 115.353 60.0884 115.002V109.827C60.0884 109.718 60.1001 109.624 60.1235 109.546C60.147 109.468 60.1938 109.41 60.264 109.371C60.3343 109.324 60.4436 109.3 60.5919 109.3C60.7402 109.3 60.8533 109.324 60.9314 109.371C61.0094 109.41 61.0602 109.468 61.0836 109.546C61.107 109.616 61.1187 109.706 61.1187 109.816V115.002C61.1187 115.205 61.1343 115.369 61.1655 115.494C61.2046 115.611 61.2592 115.701 61.3294 115.763C61.4075 115.825 61.509 115.865 61.6338 115.88C61.7587 115.896 61.9109 115.904 62.0905 115.904C62.2153 115.904 62.3168 115.915 62.3949 115.939C62.4729 115.962 62.5314 116.009 62.5705 116.079C62.6095 116.149 62.629 116.255 62.629 116.395C62.629 116.544 62.6056 116.657 62.5588 116.735C62.5197 116.805 62.4573 116.848 62.3714 116.864C62.2934 116.887 62.2036 116.899 62.1022 116.899ZM59.4796 111.361L60.6036 111.373L62.2309 111.349C62.3402 111.349 62.4339 111.361 62.5119 111.384C62.59 111.4 62.6485 111.447 62.6875 111.525C62.7344 111.595 62.7578 111.704 62.7578 111.853C62.7578 112.001 62.7383 112.114 62.6993 112.192C62.6602 112.262 62.6017 112.309 62.5236 112.333C62.4456 112.356 62.3519 112.368 62.2426 112.368L60.6387 112.344L59.4562 112.356C59.2923 112.356 59.1791 112.317 59.1167 112.239C59.062 112.161 59.0347 112.032 59.0347 111.853C59.0347 111.681 59.0698 111.556 59.1401 111.478C59.2103 111.4 59.3235 111.361 59.4796 111.361Z" fill="black"/>
<path d="M69.2425 117.016C68.9459 117.016 68.6649 116.981 68.3996 116.91C68.142 116.84 67.9039 116.747 67.6854 116.629C67.4746 116.505 67.2873 116.368 67.1234 116.22C66.9595 116.071 66.8307 115.923 66.7371 115.775C66.6512 115.65 66.5966 115.548 66.5731 115.47C66.5497 115.385 66.5536 115.303 66.5849 115.224C66.6239 115.146 66.698 115.061 66.8073 114.967C66.9322 114.873 67.0415 114.83 67.1351 114.838C67.2288 114.838 67.3146 114.873 67.3927 114.944C67.4785 115.014 67.5644 115.107 67.6503 115.224C67.8454 115.49 68.0834 115.685 68.3644 115.81C68.6454 115.927 68.9225 115.986 69.1957 115.986C69.5469 115.986 69.8591 115.939 70.1323 115.845C70.4055 115.751 70.6201 115.611 70.7762 115.424C70.9401 115.228 71.0221 114.979 71.0221 114.674C71.0221 114.424 70.9596 114.214 70.8348 114.042C70.7099 113.87 70.5421 113.726 70.3313 113.609C70.1206 113.484 69.8864 113.379 69.6289 113.293C69.3713 113.199 69.1098 113.109 68.8444 113.023C68.6337 112.953 68.4269 112.875 68.2239 112.789C68.021 112.696 67.8298 112.594 67.6503 112.485C67.4707 112.368 67.3107 112.231 67.1702 112.075C67.0375 111.919 66.9322 111.736 66.8541 111.525C66.7839 111.314 66.7488 111.068 66.7488 110.787C66.7488 110.358 66.8502 109.979 67.0532 109.652C67.2639 109.324 67.5566 109.07 67.9312 108.891C68.3059 108.703 68.7391 108.61 69.2308 108.61C69.5196 108.61 69.785 108.637 70.0269 108.692C70.2689 108.746 70.4835 108.82 70.6709 108.914C70.8582 109 71.0182 109.094 71.1509 109.195C71.2836 109.289 71.385 109.378 71.4553 109.464C71.5958 109.613 71.6738 109.737 71.6894 109.839C71.705 109.94 71.6465 110.065 71.5138 110.214C71.3889 110.354 71.268 110.428 71.1509 110.436C71.0338 110.444 70.905 110.389 70.7645 110.272C70.6162 110.1 70.4601 109.968 70.2962 109.874C70.1401 109.78 69.9723 109.718 69.7928 109.687C69.6211 109.648 69.4298 109.628 69.2191 109.628C69.0162 109.628 68.8249 109.656 68.6454 109.71C68.4737 109.757 68.3215 109.831 68.1888 109.933C68.0639 110.034 67.9664 110.159 67.8961 110.307C67.8259 110.448 67.7907 110.612 67.7907 110.799C67.7907 111.01 67.8454 111.189 67.9547 111.338C68.0717 111.486 68.2239 111.615 68.4113 111.724C68.5986 111.825 68.8093 111.919 69.0435 112.005C69.2776 112.083 69.5235 112.161 69.7811 112.239C70.062 112.325 70.3391 112.43 70.6123 112.555C70.8855 112.672 71.1314 112.821 71.3499 113C71.5685 113.172 71.7441 113.39 71.8768 113.656C72.0094 113.921 72.0758 114.249 72.0758 114.639C72.0758 115.029 71.9977 115.373 71.8416 115.669C71.6933 115.966 71.4865 116.216 71.2211 116.419C70.9557 116.614 70.6513 116.762 70.3079 116.864C69.9723 116.965 69.6172 117.016 69.2425 117.016Z" fill="black"/>
<path d="M75.5379 116.91C75.1945 116.91 74.8745 116.848 74.5779 116.723C74.2891 116.598 74.0354 116.423 73.8169 116.196C73.5983 115.97 73.4266 115.697 73.3017 115.377C73.1846 115.057 73.1261 114.694 73.1261 114.288V111.747C73.1261 111.638 73.1378 111.544 73.1612 111.466C73.1846 111.388 73.2315 111.33 73.3017 111.291C73.3798 111.244 73.4929 111.22 73.6412 111.22C73.7895 111.22 73.8988 111.244 73.9691 111.291C74.0471 111.338 74.0978 111.4 74.1213 111.478C74.1447 111.556 74.1564 111.65 74.1564 111.759V114.3C74.1564 114.62 74.211 114.904 74.3203 115.154C74.4296 115.396 74.5935 115.584 74.812 115.716C75.0384 115.849 75.3115 115.915 75.6316 115.915C75.9594 115.915 76.2404 115.849 76.4745 115.716C76.7165 115.584 76.8999 115.396 77.0248 115.154C77.1575 114.904 77.2238 114.62 77.2238 114.3V111.747C77.2238 111.638 77.2355 111.544 77.2589 111.466C77.2823 111.388 77.3292 111.33 77.3994 111.291C77.4775 111.244 77.5907 111.22 77.739 111.22C77.8873 111.22 77.9965 111.244 78.0668 111.291C78.1448 111.338 78.1917 111.4 78.2073 111.478C78.2307 111.556 78.2424 111.65 78.2424 111.759V116.407C78.2424 116.501 78.2307 116.586 78.2073 116.665C78.1917 116.735 78.1448 116.789 78.0668 116.828C77.9965 116.867 77.8873 116.887 77.739 116.887C77.6297 116.887 77.5399 116.875 77.4697 116.852C77.4072 116.828 77.3604 116.797 77.3292 116.758C77.298 116.719 77.2745 116.676 77.2589 116.629C77.2511 116.575 77.2472 116.52 77.2472 116.466L77.2941 115.962C77.216 116.056 77.1224 116.157 77.0131 116.266C76.9038 116.376 76.775 116.481 76.6267 116.583C76.4862 116.676 76.3262 116.754 76.1467 116.817C75.9672 116.879 75.7642 116.91 75.5379 116.91Z" fill="black"/>
<path d="M82.5154 116.852C82.1329 116.852 81.7856 116.782 81.4734 116.641C81.1611 116.501 80.8958 116.306 80.6772 116.056C80.4587 115.798 80.287 115.498 80.1621 115.154C80.045 114.811 79.9904 114.432 79.9982 114.019C79.9982 113.613 80.0567 113.238 80.1738 112.895C80.2909 112.551 80.4587 112.255 80.6772 112.005C80.9036 111.747 81.169 111.552 81.4734 111.419C81.7856 111.279 82.1329 111.209 82.5154 111.209C82.8744 111.209 83.21 111.279 83.5222 111.419C83.8422 111.56 84.1193 111.759 84.3535 112.017C84.5954 112.266 84.7827 112.567 84.9154 112.918C85.0559 113.269 85.1262 113.648 85.1262 114.054C85.1262 114.46 85.0559 114.834 84.9154 115.178C84.7827 115.521 84.5954 115.818 84.3535 116.067C84.1193 116.317 83.8422 116.512 83.5222 116.653C83.21 116.786 82.8744 116.852 82.5154 116.852ZM80.0801 119.205C79.9318 119.205 79.8187 119.182 79.7406 119.135C79.6704 119.096 79.6196 119.037 79.5884 118.959C79.565 118.881 79.5533 118.788 79.5533 118.678V111.759C79.5533 111.65 79.565 111.556 79.5884 111.478C79.6118 111.4 79.6587 111.341 79.7289 111.302C79.807 111.256 79.9201 111.232 80.0684 111.232C80.2401 111.232 80.365 111.259 80.4431 111.314C80.5289 111.369 80.5797 111.466 80.5953 111.607V118.667C80.6031 118.776 80.5953 118.87 80.5719 118.948C80.5484 119.033 80.4977 119.096 80.4197 119.135C80.3494 119.182 80.2362 119.205 80.0801 119.205ZM82.3632 115.892C82.691 115.892 82.9876 115.814 83.2529 115.658C83.5183 115.494 83.7252 115.271 83.8735 114.99C84.0296 114.709 84.1076 114.389 84.1076 114.03C84.1076 113.663 84.0296 113.343 83.8735 113.07C83.7252 112.797 83.5183 112.586 83.2529 112.438C82.9954 112.282 82.6988 112.204 82.3632 112.204C82.0353 112.204 81.7387 112.282 81.4734 112.438C81.2158 112.594 81.009 112.809 80.8529 113.082C80.7046 113.355 80.6304 113.671 80.6304 114.03C80.6304 114.389 80.7046 114.709 80.8529 114.99C81.009 115.271 81.2158 115.494 81.4734 115.658C81.7387 115.814 82.0353 115.892 82.3632 115.892Z" fill="black"/>
<path d="M89.0391 116.957C88.5708 116.957 88.1532 116.879 87.7864 116.723C87.4195 116.567 87.1073 116.356 86.8498 116.091C86.6 115.818 86.4088 115.505 86.2761 115.154C86.1434 114.803 86.0771 114.424 86.0771 114.019C86.0771 113.48 86.2019 113 86.4517 112.579C86.7015 112.157 87.0449 111.825 87.482 111.583C87.9269 111.334 88.4342 111.209 89.004 111.209C89.3943 111.209 89.7416 111.271 90.046 111.396C90.3582 111.513 90.6236 111.673 90.8421 111.876C91.0607 112.079 91.2285 112.305 91.3455 112.555C91.4626 112.805 91.5212 113.055 91.5212 113.304C91.5212 113.702 91.4275 113.983 91.2402 114.147C91.0528 114.303 90.8226 114.382 90.5494 114.382H87.1659C87.1581 114.725 87.2478 115.022 87.4352 115.271C87.6303 115.513 87.8722 115.701 88.161 115.833C88.4576 115.966 88.7542 116.032 89.0508 116.032C89.2694 116.032 89.4567 116.021 89.6128 115.997C89.7689 115.974 89.9055 115.943 90.0226 115.904C90.1396 115.865 90.2411 115.825 90.327 115.786C90.4128 115.747 90.487 115.708 90.5494 115.669C90.6197 115.63 90.686 115.603 90.7485 115.587C90.8187 115.572 90.885 115.58 90.9475 115.611C91.0177 115.634 91.0724 115.685 91.1114 115.763C91.1582 115.825 91.1894 115.884 91.2051 115.939C91.2207 115.993 91.2285 116.052 91.2285 116.114C91.2285 116.224 91.1348 116.345 90.9475 116.477C90.7602 116.61 90.4987 116.723 90.1631 116.817C89.8352 116.91 89.4606 116.957 89.0391 116.957ZM87.1659 113.691H90.1045C90.2528 113.691 90.3621 113.671 90.4323 113.632C90.5104 113.593 90.5494 113.488 90.5494 113.316C90.5494 113.098 90.4831 112.902 90.3504 112.731C90.2177 112.551 90.0343 112.407 89.8001 112.298C89.5738 112.188 89.3123 112.134 89.0157 112.134C88.6723 112.134 88.3562 112.204 88.0674 112.344C87.7864 112.477 87.5639 112.66 87.4 112.895C87.2361 113.129 87.1581 113.394 87.1659 113.691Z" fill="black"/>
<path d="M93.2075 116.899C93.0592 116.899 92.9461 116.875 92.868 116.828C92.7978 116.789 92.7509 116.731 92.7275 116.653C92.7119 116.567 92.7041 116.469 92.7041 116.36V111.747C92.7041 111.63 92.7158 111.533 92.7392 111.455C92.7626 111.377 92.8095 111.322 92.8797 111.291C92.95 111.252 93.0631 111.232 93.2192 111.232C93.3597 111.232 93.4651 111.252 93.5354 111.291C93.6134 111.322 93.6641 111.373 93.6876 111.443C93.7188 111.505 93.7344 111.579 93.7344 111.665L93.6876 112.017C93.7422 111.915 93.8046 111.814 93.8749 111.712C93.9529 111.611 94.0466 111.521 94.1559 111.443C94.2729 111.357 94.4095 111.287 94.5656 111.232C94.7295 111.178 94.9286 111.15 95.1627 111.15C95.2798 111.15 95.3891 111.162 95.4905 111.185C95.5998 111.201 95.7013 111.228 95.795 111.267C95.8964 111.306 95.9823 111.353 96.0525 111.408C96.1228 111.455 96.1774 111.509 96.2164 111.572C96.2633 111.626 96.2867 111.693 96.2867 111.771C96.2867 111.942 96.232 112.091 96.1228 112.216C96.0135 112.333 95.9003 112.391 95.7832 112.391C95.6818 112.391 95.6076 112.38 95.5608 112.356C95.514 112.325 95.4671 112.294 95.4203 112.262C95.3813 112.231 95.3227 112.204 95.2447 112.18C95.1666 112.149 95.0418 112.134 94.87 112.134C94.753 112.134 94.6281 112.157 94.4954 112.204C94.3705 112.251 94.2495 112.321 94.1325 112.415C94.0154 112.5 93.9178 112.614 93.8398 112.754C93.7695 112.895 93.7344 113.059 93.7344 113.246V116.384C93.7344 116.493 93.7227 116.586 93.6993 116.665C93.6758 116.743 93.6251 116.801 93.5471 116.84C93.4768 116.879 93.3636 116.899 93.2075 116.899Z" fill="black"/>
<path d="M97.9521 116.899C97.8038 116.899 97.6945 116.875 97.6243 116.828C97.554 116.782 97.5072 116.719 97.4838 116.641C97.4604 116.563 97.4487 116.469 97.4487 116.36V111.724C97.4487 111.615 97.4604 111.525 97.4838 111.455C97.5072 111.384 97.554 111.33 97.6243 111.291C97.7023 111.252 97.8155 111.232 97.9638 111.232C98.1355 111.232 98.2565 111.267 98.3268 111.338C98.4048 111.4 98.4438 111.513 98.4438 111.677L98.397 112.18C98.4516 112.063 98.5336 111.946 98.6429 111.829C98.7521 111.712 98.8809 111.607 99.0292 111.513C99.1853 111.419 99.3492 111.345 99.5209 111.291C99.6927 111.236 99.8683 111.209 100.048 111.209C100.321 111.209 100.563 111.259 100.774 111.361C100.992 111.455 101.187 111.591 101.359 111.771C101.531 111.95 101.675 112.173 101.792 112.438C101.948 112.18 102.112 111.962 102.284 111.782C102.463 111.595 102.666 111.455 102.893 111.361C103.119 111.259 103.373 111.209 103.654 111.209C104.099 111.209 104.469 111.322 104.766 111.548C105.07 111.767 105.297 112.079 105.445 112.485C105.601 112.883 105.679 113.363 105.679 113.925V116.372C105.679 116.481 105.668 116.575 105.644 116.653C105.628 116.731 105.582 116.789 105.504 116.828C105.433 116.875 105.32 116.899 105.164 116.899C105.016 116.899 104.903 116.875 104.825 116.828C104.754 116.782 104.707 116.719 104.684 116.641C104.661 116.563 104.649 116.469 104.649 116.36V113.913C104.649 113.562 104.606 113.261 104.52 113.012C104.442 112.754 104.317 112.555 104.146 112.415C103.982 112.274 103.767 112.204 103.502 112.204C103.221 112.204 102.971 112.274 102.752 112.415C102.542 112.547 102.378 112.742 102.261 113C102.143 113.258 102.085 113.562 102.085 113.913V116.384C102.085 116.501 102.062 116.602 102.015 116.688C101.968 116.774 101.898 116.832 101.804 116.864C101.71 116.903 101.597 116.91 101.464 116.887C101.34 116.871 101.246 116.84 101.183 116.793C101.121 116.747 101.082 116.688 101.066 116.618C101.051 116.54 101.043 116.454 101.043 116.36V113.913C101.043 113.562 101 113.261 100.914 113.012C100.836 112.754 100.711 112.555 100.54 112.415C100.376 112.274 100.161 112.204 99.8956 112.204C99.6146 112.204 99.3648 112.278 99.1463 112.426C98.9356 112.567 98.7717 112.766 98.6546 113.023C98.5375 113.281 98.479 113.578 98.479 113.913V116.372C98.479 116.481 98.4672 116.575 98.4438 116.653C98.4204 116.731 98.3697 116.789 98.2916 116.828C98.2214 116.875 98.1082 116.899 97.9521 116.899Z" fill="black"/>
<path d="M111.945 116.887C111.773 116.887 111.648 116.852 111.57 116.782C111.5 116.711 111.457 116.602 111.441 116.454L111.488 115.868C111.41 115.993 111.289 116.138 111.125 116.302C110.961 116.458 110.747 116.598 110.481 116.723C110.216 116.84 109.892 116.899 109.51 116.899C109.135 116.899 108.784 116.825 108.456 116.676C108.136 116.528 107.851 116.321 107.601 116.056C107.359 115.79 107.168 115.486 107.028 115.143C106.895 114.799 106.829 114.432 106.829 114.042C106.829 113.66 106.895 113.301 107.028 112.965C107.168 112.621 107.363 112.321 107.613 112.063C107.863 111.806 108.148 111.603 108.468 111.455C108.795 111.306 109.143 111.232 109.51 111.232C109.853 111.232 110.146 111.279 110.388 111.373C110.63 111.459 110.837 111.576 111.008 111.724C111.188 111.864 111.344 112.024 111.477 112.204L111.453 111.712C111.445 111.54 111.48 111.419 111.559 111.349C111.644 111.271 111.777 111.232 111.957 111.232C112.105 111.232 112.21 111.256 112.273 111.302C112.343 111.349 112.39 111.416 112.413 111.501C112.437 111.587 112.448 111.693 112.448 111.818V116.337C112.448 116.446 112.437 116.544 112.413 116.629C112.39 116.715 112.343 116.778 112.273 116.817C112.202 116.864 112.093 116.887 111.945 116.887ZM109.685 115.915C109.997 115.915 110.282 115.833 110.54 115.669C110.805 115.505 111.012 115.287 111.16 115.014C111.317 114.733 111.395 114.413 111.395 114.054C111.395 113.687 111.313 113.367 111.149 113.094C110.993 112.813 110.782 112.594 110.517 112.438C110.259 112.274 109.974 112.192 109.662 112.192C109.295 112.192 108.975 112.278 108.702 112.45C108.436 112.614 108.226 112.836 108.07 113.117C107.913 113.398 107.835 113.718 107.835 114.077C107.835 114.428 107.913 114.744 108.07 115.025C108.226 115.299 108.44 115.517 108.714 115.681C108.995 115.837 109.318 115.915 109.685 115.915Z" fill="black"/>
<path d="M114.359 116.899C114.211 116.899 114.098 116.875 114.02 116.828C113.949 116.789 113.903 116.731 113.879 116.653C113.864 116.567 113.856 116.469 113.856 116.36V111.747C113.856 111.63 113.868 111.533 113.891 111.455C113.914 111.377 113.961 111.322 114.031 111.291C114.102 111.252 114.215 111.232 114.371 111.232C114.511 111.232 114.617 111.252 114.687 111.291C114.765 111.322 114.816 111.373 114.839 111.443C114.87 111.505 114.886 111.579 114.886 111.665L114.839 112.017C114.894 111.915 114.956 111.814 115.027 111.712C115.105 111.611 115.198 111.521 115.308 111.443C115.425 111.357 115.561 111.287 115.717 111.232C115.881 111.178 116.08 111.15 116.314 111.15C116.432 111.15 116.541 111.162 116.642 111.185C116.752 111.201 116.853 111.228 116.947 111.267C117.048 111.306 117.134 111.353 117.204 111.408C117.274 111.455 117.329 111.509 117.368 111.572C117.415 111.626 117.438 111.693 117.438 111.771C117.438 111.942 117.384 112.091 117.274 112.216C117.165 112.333 117.052 112.391 116.935 112.391C116.833 112.391 116.759 112.38 116.712 112.356C116.666 112.325 116.619 112.294 116.572 112.262C116.533 112.231 116.474 112.204 116.396 112.18C116.318 112.149 116.193 112.134 116.022 112.134C115.905 112.134 115.78 112.157 115.647 112.204C115.522 112.251 115.401 112.321 115.284 112.415C115.167 112.5 115.069 112.614 114.991 112.754C114.921 112.895 114.886 113.059 114.886 113.246V116.384C114.886 116.493 114.874 116.586 114.851 116.665C114.828 116.743 114.777 116.801 114.699 116.84C114.629 116.879 114.515 116.899 114.359 116.899Z" fill="black"/>
<path d="M122.956 115.986C123.104 116.103 123.182 116.216 123.19 116.325C123.205 116.434 123.151 116.563 123.026 116.711C122.932 116.821 122.846 116.891 122.768 116.922C122.698 116.961 122.624 116.965 122.546 116.934C122.468 116.91 122.378 116.856 122.277 116.77L119.631 114.616V116.372C119.631 116.481 119.615 116.575 119.584 116.653C119.56 116.731 119.514 116.789 119.443 116.828C119.373 116.875 119.26 116.899 119.104 116.899C118.963 116.899 118.854 116.875 118.776 116.828C118.698 116.789 118.647 116.731 118.624 116.653C118.608 116.567 118.6 116.469 118.6 116.36V109.136C118.6 109.027 118.612 108.934 118.635 108.855C118.659 108.777 118.71 108.719 118.788 108.68C118.866 108.633 118.975 108.61 119.116 108.61C119.272 108.61 119.385 108.633 119.455 108.68C119.525 108.719 119.572 108.781 119.596 108.867C119.619 108.945 119.631 109.039 119.631 109.148V113.293L121.562 111.443C121.648 111.357 121.73 111.298 121.808 111.267C121.894 111.228 121.976 111.22 122.054 111.244C122.14 111.267 122.226 111.33 122.312 111.431C122.452 111.587 122.519 111.72 122.511 111.829C122.511 111.931 122.44 112.048 122.3 112.18L120.403 113.972L122.956 115.986Z" fill="black"/>
<path d="M126.643 116.957C126.175 116.957 125.758 116.879 125.391 116.723C125.024 116.567 124.712 116.356 124.454 116.091C124.204 115.818 124.013 115.505 123.88 115.154C123.748 114.803 123.681 114.424 123.681 114.019C123.681 113.48 123.806 113 124.056 112.579C124.306 112.157 124.649 111.825 125.086 111.583C125.531 111.334 126.038 111.209 126.608 111.209C126.999 111.209 127.346 111.271 127.65 111.396C127.962 111.513 128.228 111.673 128.446 111.876C128.665 112.079 128.833 112.305 128.95 112.555C129.067 112.805 129.125 113.055 129.125 113.304C129.125 113.702 129.032 113.983 128.844 114.147C128.657 114.303 128.427 114.382 128.154 114.382H124.77C124.762 114.725 124.852 115.022 125.039 115.271C125.235 115.513 125.477 115.701 125.765 115.833C126.062 115.966 126.359 116.032 126.655 116.032C126.874 116.032 127.061 116.021 127.217 115.997C127.373 115.974 127.51 115.943 127.627 115.904C127.744 115.865 127.845 115.825 127.931 115.786C128.017 115.747 128.091 115.708 128.154 115.669C128.224 115.63 128.29 115.603 128.353 115.587C128.423 115.572 128.489 115.58 128.552 115.611C128.622 115.634 128.677 115.685 128.716 115.763C128.762 115.825 128.794 115.884 128.809 115.939C128.825 115.993 128.833 116.052 128.833 116.114C128.833 116.224 128.739 116.345 128.552 116.477C128.364 116.61 128.103 116.723 127.767 116.817C127.44 116.91 127.065 116.957 126.643 116.957ZM124.77 113.691H127.709C127.857 113.691 127.966 113.671 128.037 113.632C128.115 113.593 128.154 113.488 128.154 113.316C128.154 113.098 128.087 112.902 127.955 112.731C127.822 112.551 127.639 112.407 127.404 112.298C127.178 112.188 126.917 112.134 126.62 112.134C126.277 112.134 125.96 112.204 125.672 112.344C125.391 112.477 125.168 112.66 125.004 112.895C124.84 113.129 124.762 113.394 124.77 113.691Z" fill="black"/>
<path d="M132.852 116.899C132.485 116.899 132.173 116.864 131.915 116.793C131.665 116.723 131.458 116.614 131.295 116.466C131.131 116.317 131.014 116.126 130.943 115.892C130.873 115.65 130.838 115.353 130.838 115.002V109.827C130.838 109.718 130.85 109.624 130.873 109.546C130.897 109.468 130.943 109.41 131.014 109.371C131.084 109.324 131.193 109.3 131.341 109.3C131.49 109.3 131.603 109.324 131.681 109.371C131.759 109.41 131.81 109.468 131.833 109.546C131.857 109.616 131.868 109.706 131.868 109.816V115.002C131.868 115.205 131.884 115.369 131.915 115.494C131.954 115.611 132.009 115.701 132.079 115.763C132.157 115.825 132.259 115.865 132.383 115.88C132.508 115.896 132.66 115.904 132.84 115.904C132.965 115.904 133.066 115.915 133.144 115.939C133.222 115.962 133.281 116.009 133.32 116.079C133.359 116.149 133.379 116.255 133.379 116.395C133.379 116.544 133.355 116.657 133.308 116.735C133.269 116.805 133.207 116.848 133.121 116.864C133.043 116.887 132.953 116.899 132.852 116.899ZM130.229 111.361L131.353 111.373L132.98 111.349C133.09 111.349 133.183 111.361 133.261 111.384C133.34 111.4 133.398 111.447 133.437 111.525C133.484 111.595 133.507 111.704 133.507 111.853C133.507 112.001 133.488 112.114 133.449 112.192C133.41 112.262 133.351 112.309 133.273 112.333C133.195 112.356 133.101 112.368 132.992 112.368L131.388 112.344L130.206 112.356C130.042 112.356 129.929 112.317 129.866 112.239C129.812 112.161 129.784 112.032 129.784 111.853C129.784 111.681 129.819 111.556 129.89 111.478C129.96 111.4 130.073 111.361 130.229 111.361Z" fill="black"/>
<rect x="75" y="15" width="4" height="13" rx="2" fill="#DF1C26"/>
<rect x="66" y="15" width="4" height="13" rx="2" fill="#DF1C26"/>
<rect x="56" y="15" width="4" height="13" rx="2" fill="#DF1C26"/>
<path d="M64.268 0.885523C65.7551 -0.412216 67.3441 -0.283571 69.0348 1.27145C69.1366 1.36475 69.2568 1.41141 69.3953 1.41141C78.1063 1.41706 86.8201 1.41847 95.5367 1.41564C97.7632 1.41564 98.3442 5.22828 95.2144 5.23252C86.6589 5.23535 78.1034 5.23535 69.548 5.23252C69.4038 5.23252 69.285 5.28624 69.1917 5.39368C65.8329 9.37596 60.5613 4.12563 64.268 0.885523Z" fill="#1F1F1F"/>
<path d="M36.2538 5.09777C35.9781 3.35049 36.5337 2.01883 38.4633 2.01459C46.1734 2.00045 53.8821 1.99904 61.5894 2.01035C61.7336 2.01035 61.8042 2.08386 61.8014 2.23088C61.7816 3.45228 62.1138 4.56483 62.798 5.56852C62.914 5.73816 62.8687 5.82298 62.6623 5.82298H40.7026C40.4594 5.82298 40.3562 5.94315 40.393 6.18347C41.6031 14.2215 42.8018 22.302 43.9893 30.4249C44.2523 32.24 45.7239 32.7447 47.4627 32.7447C60.7963 32.756 74.1313 32.7574 87.4678 32.7489C89.1175 32.7489 89.9827 31.5191 90.2244 29.916C91.378 22.2483 92.5273 14.582 93.6724 6.91716C93.695 6.76448 93.7826 6.68673 93.9353 6.6839L97.4426 6.64149C97.5415 6.63866 97.5839 6.68531 97.5698 6.78144C96.4106 14.5453 95.2542 22.3119 94.1007 30.0814C93.3755 34.967 90.763 36.5658 86.0216 36.5658C73.7313 36.5715 61.4423 36.5729 49.1548 36.5701C43.0648 36.5701 40.8043 35.2638 39.9265 29.301C38.7362 21.229 37.5119 13.1613 36.2538 5.09777Z" fill="#1F1F1F"/>
</svg>
