<svg xmlns="http://www.w3.org/2000/svg" version="1.1" xmlns:xlink="http://www.w3.org/1999/xlink" width="512" height="512" x="0" y="0" viewBox="0 0 500 500" style="enable-background:new 0 0 512 512" xml:space="preserve" class=""><g><path fill-rule="evenodd" d="M354.809 240.715a4.414 4.414 0 0 1-4.409 4.411h-93.961v-74.572h98.37zm-209.62-83.044v-10.776a4.42 4.42 0 0 1 4.411-4.412h200.8a4.418 4.418 0 0 1 4.409 4.412v10.776zm0 83.044v-70.161h98.37v74.572H149.6a4.416 4.416 0 0 1-4.411-4.411zM350.4 129.601H149.6c-9.534 0-17.291 7.764-17.291 17.295v93.819c0 9.536 7.756 17.29 17.291 17.29h200.8c9.534 0 17.291-7.754 17.291-17.29v-93.819c0-9.531-7.757-17.295-17.291-17.295zm-93.961 157.553v46.383l9.153-12.212a6.446 6.446 0 0 1 9.018-1.286c2.845 2.139 3.422 6.173 1.288 9.014l-21.131 28.122c-2.774 2.945-7.115 2.876-9.919-.454l-20.743-27.667c-2.135-2.841-1.558-6.876 1.287-9.014a6.447 6.447 0 0 1 9.018 1.286l9.151 12.212v-46.383a6.439 6.439 0 0 1 6.441-6.436 6.435 6.435 0 0 1 6.437 6.435zm23.865 128.001c-5.196 0-9.423-4.226-9.423-9.422 0-5.202 4.227-9.427 9.423-9.427s9.423 4.225 9.423 9.427c0 5.197-4.227 9.422-9.423 9.422zm-51.185-9.422c0 5.197-4.228 9.422-9.423 9.422-5.196 0-9.423-4.226-9.423-9.422 0-5.202 4.227-9.427 9.423-9.427s9.423 4.225 9.423 9.427zm95.539-89.005c-3.438-.909-6.963 1.147-7.874 4.582l-13.849 52.38c-1.541 5.822-6.626 9.737-12.654 9.737h-85.633c-5.38 0-9.87-2.944-12.008-7.883l-28.242-65.15c-4.183-9.655-13.312-15.637-23.827-15.637h-20.943a6.432 6.432 0 0 0-6.439 6.437 6.439 6.439 0 0 0 6.439 6.441h20.943c5.38 0 9.869 2.945 12.008 7.873l28.242 65.16c3.511 8.1 10.515 13.601 18.891 15.166-7.302 14.702 3.395 32.203 19.983 32.203 16.372 0 27.064-17.082 20.209-31.733h20.191c-6.862 14.66 3.843 31.733 20.209 31.733 17.244 0 27.827-18.763 19.316-33.432 7.636-2.888 13.552-9.247 15.768-17.631l13.85-52.37a6.444 6.444 0 0 0-4.58-7.876zm81.931 115.608V67.674c0-9.551-7.769-17.321-17.317-17.321H151.616v28.009c0 16.649-13.548 30.204-30.199 30.204H93.409v323.77c0 9.551 7.769 17.315 17.318 17.315h278.546c9.548.001 17.316-7.764 17.316-17.315zM138.734 59.461v18.901c0 9.551-7.769 17.321-17.317 17.321h-18.899zM389.272 37.47H145.175a6.421 6.421 0 0 0-4.554 1.891L82.415 97.563a6.453 6.453 0 0 0-1.887 4.561v330.212c0 16.649 13.548 30.193 30.197 30.193h278.546c16.652 0 30.199-13.544 30.199-30.193V67.674c.001-16.654-13.546-30.204-30.198-30.204z" clip-rule="evenodd" fill="#DF1C26" opacity="1" data-original="#000000"></path></g></svg>